<svg width="1528" height="853" viewBox="0 0 1528 853" fill="none" xmlns="http://www.w3.org/2000/svg">
<path d="M1206.35 468.739C1236.82 443.045 1333.61 362.526 1365.27 331.923C1392.25 305.84 1429.52 267.037 1442.47 229.101C1451.29 203.269 1449.31 161.122 1435.07 137.051C1417.74 107.778 1382.19 90.1582 1350.47 83.8676C1311.85 76.2106 1246.16 81.1289 1209.04 88.5418C1162.07 97.9247 1103.66 118.642 1062.54 143.748C1025.67 166.262 986.638 202.602 961.903 238.432C929.574 285.26 919.542 339.799 908.882 394.217C898.051 449.511 893.038 480.173 877.902 535.679C865.224 582.173 854.833 624.6 823.897 662.952C789.85 705.162 750.736 723.755 699.848 741.686C625.786 767.783 574.058 775.317 494.377 772.401C408.191 769.246 334.05 752.587 251.695 728.048C209.675 715.528 127.255 693.241 94.4067 651.615C66.917 616.779 85.108 582.383 101.154 549.34C109.927 531.275 120.579 514.069 132.354 497.8C196.78 408.789 134.876 503.745 194.521 436.614" stroke="#FFE8CC" stroke-width="160" stroke-linecap="round"/>
</svg>
