<svg width="273" height="78" viewBox="0 0 273 78" fill="none" xmlns="http://www.w3.org/2000/svg">
<path d="M60.188 66.528C58.604 66.528 57.1813 66.2493 55.92 65.692C54.6587 65.1347 53.588 64.3427 52.708 63.316C51.8573 62.2893 51.1973 61.0427 50.728 59.576C50.288 58.1093 50.068 56.4667 50.068 54.648C50.068 52.8293 50.288 51.1867 50.728 49.72C51.1973 48.2533 51.8573 47.0067 52.708 45.98C53.588 44.9533 54.6587 44.1613 55.92 43.604C57.1813 43.0467 58.604 42.768 60.188 42.768C62.4467 42.768 64.2507 43.2667 65.6 44.264C66.9787 45.232 68.0053 46.508 68.68 48.092L65.732 49.588C65.3213 48.4147 64.6467 47.5053 63.708 46.86C62.7693 46.2147 61.596 45.892 60.188 45.892C59.132 45.892 58.208 46.068 57.416 46.42C56.624 46.7427 55.964 47.212 55.436 47.828C54.908 48.4147 54.512 49.1333 54.248 49.984C53.984 50.8053 53.852 51.7147 53.852 52.712V56.584C53.852 58.5787 54.38 60.2213 55.436 61.512C56.5213 62.7733 58.1053 63.404 60.188 63.404C63.0333 63.404 65.0867 62.084 66.348 59.444L68.9 61.16C68.1667 62.8027 67.0667 64.108 65.6 65.076C64.1627 66.044 62.3587 66.528 60.188 66.528ZM82.1911 66.528C80.6658 66.528 79.2724 66.2493 78.0111 65.692C76.7498 65.1347 75.6644 64.3427 74.7551 63.316C73.8751 62.26 73.1858 61.0133 72.6871 59.576C72.1884 58.1093 71.9391 56.4667 71.9391 54.648C71.9391 52.8587 72.1884 51.2307 72.6871 49.764C73.1858 48.2973 73.8751 47.0507 74.7551 46.024C75.6644 44.968 76.7498 44.1613 78.0111 43.604C79.2724 43.0467 80.6658 42.768 82.1911 42.768C83.7164 42.768 85.0951 43.0467 86.3271 43.604C87.5884 44.1613 88.6738 44.968 89.5831 46.024C90.4924 47.0507 91.1964 48.2973 91.6951 49.764C92.1938 51.2307 92.4431 52.8587 92.4431 54.648C92.4431 56.4667 92.1938 58.1093 91.6951 59.576C91.1964 61.0133 90.4924 62.26 89.5831 63.316C88.6738 64.3427 87.5884 65.1347 86.3271 65.692C85.0951 66.2493 83.7164 66.528 82.1911 66.528ZM82.1911 63.404C84.0978 63.404 85.6524 62.8173 86.8551 61.644C88.0578 60.4707 88.6591 58.6813 88.6591 56.276V53.02C88.6591 50.6147 88.0578 48.8253 86.8551 47.652C85.6524 46.4787 84.0978 45.892 82.1911 45.892C80.2844 45.892 78.7298 46.4787 77.5271 47.652C76.3244 48.8253 75.7231 50.6147 75.7231 53.02V56.276C75.7231 58.6813 76.3244 60.4707 77.5271 61.644C78.7298 62.8173 80.2844 63.404 82.1911 63.404ZM98.2322 66V43.296H101.752V46.992H101.928C102.192 46.4053 102.486 45.8627 102.808 45.364C103.16 44.836 103.571 44.3813 104.04 44C104.539 43.6187 105.111 43.3253 105.756 43.12C106.402 42.8853 107.164 42.768 108.044 42.768C109.54 42.768 110.919 43.1347 112.18 43.868C113.442 44.572 114.38 45.7453 114.996 47.388H115.084C115.495 46.156 116.258 45.0853 117.372 44.176C118.516 43.2373 120.056 42.768 121.992 42.768C124.31 42.768 126.114 43.5307 127.404 45.056C128.724 46.552 129.384 48.6787 129.384 51.436V66H125.864V52.052C125.864 50.028 125.468 48.5027 124.676 47.476C123.884 46.4493 122.623 45.936 120.892 45.936C120.188 45.936 119.514 46.024 118.868 46.2C118.252 46.376 117.695 46.64 117.196 46.992C116.698 47.344 116.302 47.7987 116.008 48.356C115.715 48.884 115.568 49.5147 115.568 50.248V66H112.048V52.052C112.048 50.028 111.652 48.5027 110.86 47.476C110.068 46.4493 108.836 45.936 107.164 45.936C106.46 45.936 105.786 46.024 105.14 46.2C104.495 46.376 103.923 46.64 103.424 46.992C102.926 47.344 102.515 47.7987 102.192 48.356C101.899 48.884 101.752 49.5147 101.752 50.248V66H98.2322ZM136.646 43.296H140.166V46.992H140.342C140.929 45.5547 141.78 44.4987 142.894 43.824C144.038 43.12 145.402 42.768 146.986 42.768C148.394 42.768 149.67 43.0467 150.814 43.604C151.958 44.1613 152.926 44.9533 153.718 45.98C154.54 47.0067 155.156 48.2533 155.566 49.72C156.006 51.1867 156.226 52.8293 156.226 54.648C156.226 56.4667 156.006 58.1093 155.566 59.576C155.156 61.0427 154.54 62.2893 153.718 63.316C152.926 64.3427 151.958 65.1347 150.814 65.692C149.67 66.2493 148.394 66.528 146.986 66.528C143.906 66.528 141.692 65.12 140.342 62.304H140.166V74.8H136.646V43.296ZM146.018 63.36C148.013 63.36 149.582 62.744 150.726 61.512C151.87 60.2507 152.442 58.608 152.442 56.584V52.712C152.442 50.688 151.87 49.06 150.726 47.828C149.582 46.5667 148.013 45.936 146.018 45.936C145.226 45.936 144.464 46.0533 143.73 46.288C143.026 46.4933 142.41 46.7867 141.882 47.168C141.354 47.5493 140.929 48.0187 140.606 48.576C140.313 49.104 140.166 49.676 140.166 50.292V58.74C140.166 59.4733 140.313 60.1333 140.606 60.72C140.929 61.2773 141.354 61.7613 141.882 62.172C142.41 62.5533 143.026 62.8467 143.73 63.052C144.464 63.2573 145.226 63.36 146.018 63.36ZM170.75 66.528C169.224 66.528 167.831 66.2493 166.57 65.692C165.308 65.1347 164.223 64.3427 163.314 63.316C162.434 62.26 161.744 61.0133 161.246 59.576C160.747 58.1093 160.498 56.4667 160.498 54.648C160.498 52.8587 160.747 51.2307 161.246 49.764C161.744 48.2973 162.434 47.0507 163.314 46.024C164.223 44.968 165.308 44.1613 166.57 43.604C167.831 43.0467 169.224 42.768 170.75 42.768C172.275 42.768 173.654 43.0467 174.886 43.604C176.147 44.1613 177.232 44.968 178.142 46.024C179.051 47.0507 179.755 48.2973 180.254 49.764C180.752 51.2307 181.002 52.8587 181.002 54.648C181.002 56.4667 180.752 58.1093 180.254 59.576C179.755 61.0133 179.051 62.26 178.142 63.316C177.232 64.3427 176.147 65.1347 174.886 65.692C173.654 66.2493 172.275 66.528 170.75 66.528ZM170.75 63.404C172.656 63.404 174.211 62.8173 175.414 61.644C176.616 60.4707 177.218 58.6813 177.218 56.276V53.02C177.218 50.6147 176.616 48.8253 175.414 47.652C174.211 46.4787 172.656 45.892 170.75 45.892C168.843 45.892 167.288 46.4787 166.086 47.652C164.883 48.8253 164.282 50.6147 164.282 53.02V56.276C164.282 58.6813 164.883 60.4707 166.086 61.644C167.288 62.8173 168.843 63.404 170.75 63.404ZM188.331 66C187.216 66 186.365 65.7213 185.779 65.164C185.192 64.5773 184.899 63.8293 184.899 62.92C184.899 62.6267 184.943 62.26 185.031 61.82L190.707 33.44H195.283L189.519 62.172H192.687L191.939 66H188.331ZM214.006 66C212.979 66 212.158 65.736 211.542 65.208C210.955 64.68 210.662 63.9467 210.662 63.008C210.662 62.5093 210.706 62.084 210.794 61.732L210.97 60.896H210.794C209.855 62.7733 208.814 64.1813 207.67 65.12C206.555 66.0587 205.118 66.528 203.358 66.528C201.246 66.528 199.618 65.7653 198.474 64.24C197.33 62.7147 196.758 60.676 196.758 58.124C196.758 56.1293 197.007 54.1933 197.506 52.316C198.005 50.4387 198.723 48.7813 199.662 47.344C200.63 45.9067 201.789 44.7627 203.138 43.912C204.487 43.032 206.013 42.592 207.714 42.592C209.21 42.592 210.501 42.988 211.586 43.78C212.671 44.5427 213.331 45.5987 213.566 46.948H213.786L214.534 43.12H219.11L215.282 62.172H218.23L217.482 66H214.006ZM205.118 62.612C206.057 62.612 206.878 62.4067 207.582 61.996C208.315 61.5853 208.975 61.0573 209.562 60.412C210.823 59.0627 211.659 57.3613 212.07 55.308L212.994 50.688C213.082 50.1893 213.053 49.6907 212.906 49.192C212.759 48.6933 212.495 48.2533 212.114 47.872C211.733 47.4613 211.234 47.1387 210.618 46.904C210.031 46.64 209.357 46.508 208.594 46.508C206.893 46.508 205.529 47.036 204.502 48.092C203.475 49.1187 202.757 50.644 202.346 52.668L201.686 55.88C201.627 56.232 201.569 56.628 201.51 57.068C201.481 57.508 201.466 57.904 201.466 58.256C201.466 59.5467 201.759 60.6027 202.346 61.424C202.962 62.216 203.886 62.612 205.118 62.612ZM221.879 66L226.455 43.12H231.031L230.063 48.004H230.283C231.134 46.244 232.131 44.9093 233.275 44C234.419 43.0613 235.842 42.592 237.543 42.592C239.45 42.592 240.873 43.1347 241.811 44.22C242.779 45.3053 243.263 46.816 243.263 48.752C243.263 49.2507 243.234 49.7493 243.175 50.248C243.117 50.7173 243.029 51.2453 242.911 51.832L240.843 62.172H243.615L242.867 66H239.391C238.423 66 237.646 65.7507 237.059 65.252C236.502 64.7533 236.223 64.0347 236.223 63.096C236.223 62.92 236.223 62.7733 236.223 62.656C236.223 62.5093 236.253 62.304 236.311 62.04L238.291 52.14C238.467 51.26 238.555 50.4533 238.555 49.72C238.555 48.6933 238.321 47.916 237.851 47.388C237.382 46.8307 236.619 46.552 235.563 46.552C234.038 46.552 232.703 47.1973 231.559 48.488C230.914 49.192 230.357 50.0133 229.887 50.952C229.418 51.8613 229.095 52.7707 228.919 53.68L226.455 66H221.879ZM265.01 66C263.983 66 263.162 65.736 262.546 65.208C261.959 64.68 261.666 63.9467 261.666 63.008C261.666 62.5093 261.71 62.084 261.798 61.732L261.974 60.896H261.798C260.859 62.7733 259.818 64.1813 258.674 65.12C257.559 66.0587 256.122 66.528 254.362 66.528C252.25 66.528 250.622 65.7653 249.478 64.24C248.334 62.7147 247.762 60.676 247.762 58.124C247.762 56.1293 248.011 54.1933 248.51 52.316C249.009 50.4387 249.727 48.7813 250.666 47.344C251.634 45.9067 252.793 44.7627 254.142 43.912C255.491 43.032 257.017 42.592 258.718 42.592C260.214 42.592 261.505 42.988 262.59 43.78C263.675 44.5427 264.335 45.5987 264.57 46.948H264.79L267.474 33.44H272.05L266.286 62.172H269.234L268.486 66H265.01ZM256.21 62.612C257.119 62.612 257.926 62.4067 258.63 61.996C259.334 61.556 259.979 61.028 260.566 60.412C261.857 59.0333 262.693 57.3467 263.074 55.352L263.91 51.172C264.174 49.852 263.939 48.752 263.206 47.872C262.473 46.9627 261.241 46.508 259.51 46.508C257.867 46.508 256.533 47.036 255.506 48.092C254.479 49.1187 253.761 50.644 253.35 52.668L252.69 55.88C252.631 56.232 252.573 56.628 252.514 57.068C252.485 57.4787 252.47 57.8747 252.47 58.256C252.47 59.5467 252.778 60.6027 253.394 61.424C254.01 62.216 254.949 62.612 256.21 62.612Z" fill="black"/>
<path d="M29 0L35.5109 19.693H56.5806L39.5349 31.864L46.0458 51.557L29 39.386L11.9542 51.557L18.4651 31.864L1.41936 19.693H22.4891L29 0Z" fill="#C4C4C4"/>
</svg>
