<svg width="205" height="73" viewBox="0 0 205 73" fill="none" xmlns="http://www.w3.org/2000/svg">
<path d="M10.4471 47.0758L25.3474 55.26L15.7189 72.7898L0.818609 64.6056L10.4471 47.0758Z" fill="#4B7238"/>
<path d="M3.3725 16.0201C1.21786 20.1592 0 24.8638 0 29.8529C0 46.4214 13.4315 59.8529 30 59.8529C42.1373 59.8529 52.5912 52.6451 57.3148 42.2764C52.4903 40.7213 49 36.1947 49 30.8529C49 25.2399 52.8537 20.5271 58.0596 19.2158C54.1045 8.78839 44.5038 1.1391 32.9895 0C32.6481 10.47 24.053 18.8529 13.5 18.8529C9.79126 18.8529 6.32431 17.8176 3.3725 16.0201Z" fill="#4B7238"/>
<path d="M83.44 52.2129C81.392 52.2129 79.8 51.6529 78.664 50.5329C77.528 49.3969 76.96 47.8369 76.96 45.8529C76.96 43.8689 77.528 42.3169 78.664 41.1969C79.8 40.0609 81.392 39.4929 83.44 39.4929C84.912 39.4929 86.016 39.7489 86.752 40.2609C87.504 40.7729 87.88 41.3969 87.88 42.1329C87.88 42.6769 87.712 43.1169 87.376 43.4529C87.056 43.7729 86.624 43.9329 86.08 43.9329C85.856 43.9329 85.632 43.9169 85.408 43.8849L85.12 43.8129V40.2129L84.784 40.0929C84.544 40.0129 84.256 39.9729 83.92 39.9729C83.008 39.9729 82.296 40.4049 81.784 41.2689C81.288 42.1329 81.04 43.6609 81.04 45.8529C81.04 47.9809 81.288 49.4769 81.784 50.3409C82.296 51.1889 83.008 51.6129 83.92 51.6129C84.544 51.6129 85.12 51.4689 85.648 51.1809C86.192 50.8769 86.616 50.4849 86.92 50.0049C87.24 49.5089 87.4 49.0049 87.4 48.4929H88C88 49.1329 87.808 49.7409 87.424 50.3169C87.04 50.8929 86.504 51.3569 85.816 51.7089C85.128 52.0449 84.336 52.2129 83.44 52.2129Z" fill="#4B7238"/>
<path d="M94.1322 52.2129C92.7082 52.2129 91.6122 51.9089 90.8442 51.3009C90.0762 50.6929 89.6922 49.9169 89.6922 48.9729C89.6922 48.3489 89.8282 47.7329 90.1002 47.1249C90.2122 46.8369 90.3562 46.5729 90.5322 46.3329C91.1882 46.1729 91.9002 46.0289 92.6682 45.9009C94.3962 45.6129 95.9242 45.4369 97.2522 45.3729V44.6529C97.2522 42.8769 97.0362 41.6529 96.6042 40.9809C96.1722 40.3089 95.5082 39.9729 94.6122 39.9729C94.2762 39.9729 93.9882 40.0129 93.7482 40.0929L93.4122 40.2129V43.8129L93.1002 43.8849C92.8442 43.9169 92.6282 43.9329 92.4522 43.9329C91.9082 43.9329 91.4682 43.7729 91.1322 43.4529C90.8122 43.1169 90.6522 42.6769 90.6522 42.1329C90.6522 41.3969 91.0202 40.7729 91.7562 40.2609C92.5082 39.7489 93.6202 39.4929 95.0922 39.4929C96.3402 39.4929 97.4122 39.7169 98.3082 40.1649C99.2202 40.5969 99.9082 41.2049 100.372 41.9889C100.852 42.7569 101.092 43.6449 101.092 44.6529V51.1329L102.532 51.4929V51.8529H100.372C99.4122 51.8529 98.6682 51.5569 98.1402 50.9649C97.9162 50.7249 97.7402 50.4209 97.6122 50.0529C97.3882 50.4529 97.1242 50.8129 96.8202 51.1329C96.1002 51.8529 95.2042 52.2129 94.1322 52.2129ZM95.0922 51.3729C95.6842 51.3729 96.2202 51.0529 96.7002 50.4129C96.8762 50.1729 97.0602 49.8529 97.2522 49.4529V45.9729C96.5162 45.9729 95.8122 46.0129 95.1402 46.0929C94.6442 46.1569 94.3082 46.1969 94.1322 46.2129C94.0522 46.3889 93.9722 46.6289 93.8922 46.9329C93.7322 47.5409 93.6522 48.1409 93.6522 48.7329C93.6522 49.6289 93.7882 50.2929 94.0602 50.7249C94.3322 51.1569 94.6762 51.3729 95.0922 51.3729Z" fill="#4B7238"/>
<path d="M102.783 51.2529H104.703C104.959 51.0769 105.239 50.7969 105.543 50.4129C106.103 49.7089 106.423 48.8289 106.503 47.7729L106.983 40.6929L105.303 40.2129V39.8529H116.703V40.2129L115.263 40.5729V51.2529H117.423V55.8129H116.703C116.287 55.5409 115.943 55.2129 115.671 54.8289C114.999 53.9649 114.663 52.9729 114.663 51.8529H105.543C105.543 52.9569 105.199 53.9489 104.511 54.8289C104.239 55.2129 103.903 55.5409 103.503 55.8129H102.783V51.2529ZM111.423 51.2529V40.4529H107.703L107.223 47.7729C107.143 48.7809 106.839 49.6609 106.311 50.4129C106.071 50.7489 105.815 51.0289 105.543 51.2529H111.423Z" fill="#4B7238"/>
<path d="M125.109 52.2129C123.125 52.2129 121.565 51.6529 120.429 50.5329C119.309 49.3969 118.749 47.8369 118.749 45.8529C118.749 43.8689 119.309 42.3169 120.429 41.1969C121.565 40.0609 123.125 39.4929 125.109 39.4929C127.093 39.4929 128.645 40.0609 129.765 41.1969C130.901 42.3169 131.469 43.8689 131.469 45.8529C131.469 47.8369 130.901 49.3969 129.765 50.5329C128.645 51.6529 127.093 52.2129 125.109 52.2129ZM125.109 51.7329C125.749 51.7329 126.285 51.2849 126.717 50.3889C127.165 49.4929 127.389 47.9809 127.389 45.8529C127.389 43.7249 127.165 42.2129 126.717 41.3169C126.285 40.4209 125.749 39.9729 125.109 39.9729C124.469 39.9729 123.925 40.4209 123.477 41.3169C123.045 42.2129 122.829 43.7249 122.829 45.8529C122.829 47.9809 123.045 49.4929 123.477 50.3889C123.925 51.2849 124.469 51.7329 125.109 51.7329Z" fill="#4B7238"/>
<path d="M133.398 51.4929L134.837 51.1329V40.5729L133.398 40.2129V39.8529H139.518C140.91 39.8529 142.053 39.9969 142.949 40.2849C143.861 40.5729 144.517 40.9489 144.917 41.4129C145.317 41.8609 145.518 42.3409 145.518 42.8529C145.518 43.4929 145.309 44.0129 144.893 44.4129C144.493 44.8129 143.981 45.1009 143.357 45.2769C142.685 45.4849 141.965 45.5969 141.197 45.6129V45.7329C142.141 45.7489 142.981 45.8689 143.717 46.0929C144.453 46.3329 145.054 46.6529 145.518 47.0529C145.998 47.4369 146.238 47.9569 146.238 48.6129C146.238 49.5569 145.741 50.3329 144.749 50.9409C143.773 51.5489 142.189 51.8529 139.997 51.8529H133.398V51.4929ZM139.518 45.3729C140.078 45.3729 140.558 45.1409 140.958 44.6769C141.358 44.2129 141.557 43.6049 141.557 42.8529C141.557 42.1489 141.358 41.5729 140.958 41.1249C140.558 40.6769 140.078 40.4529 139.518 40.4529H138.678V45.3729H139.518ZM139.997 51.2529C140.685 51.2529 141.238 51.0209 141.654 50.5569C142.07 50.0929 142.277 49.4449 142.277 48.6129C142.277 47.7809 142.07 47.1329 141.654 46.6689C141.238 46.2049 140.685 45.9729 139.997 45.9729H138.678V51.2529H139.997Z" fill="#4B7238"/>
<path d="M154.289 52.2129C152.305 52.2129 150.745 51.6529 149.609 50.5329C148.489 49.3969 147.929 47.8369 147.929 45.8529C147.929 43.8689 148.489 42.3169 149.609 41.1969C150.745 40.0609 152.305 39.4929 154.289 39.4929C156.273 39.4929 157.825 40.0609 158.945 41.1969C160.081 42.3169 160.649 43.8689 160.649 45.8529C160.649 47.8369 160.081 49.3969 158.945 50.5329C157.825 51.6529 156.273 52.2129 154.289 52.2129ZM154.289 51.7329C154.929 51.7329 155.465 51.2849 155.897 50.3889C156.345 49.4929 156.569 47.9809 156.569 45.8529C156.569 43.7249 156.345 42.2129 155.897 41.3169C155.465 40.4209 154.929 39.9729 154.289 39.9729C153.649 39.9729 153.105 40.4209 152.657 41.3169C152.225 42.2129 152.009 43.7249 152.009 45.8529C152.009 47.9809 152.225 49.4929 152.657 50.3889C153.105 51.2849 153.649 51.7329 154.289 51.7329Z" fill="#4B7238"/>
<path d="M160.651 51.2529H162.571C162.827 51.0769 163.107 50.7969 163.411 50.4129C163.971 49.7089 164.291 48.8289 164.371 47.7729L164.851 40.6929L163.171 40.2129V39.8529H174.571V40.2129L173.131 40.5729V51.2529H175.291V55.8129H174.571C174.155 55.5409 173.811 55.2129 173.539 54.8289C172.867 53.9649 172.531 52.9729 172.531 51.8529H163.411C163.411 52.9569 163.067 53.9489 162.379 54.8289C162.107 55.2129 161.771 55.5409 161.371 55.8129H160.651V51.2529ZM169.291 51.2529V40.4529H165.571L165.091 47.7729C165.011 48.7809 164.707 49.6609 164.179 50.4129C163.939 50.7489 163.683 51.0289 163.411 51.2529H169.291Z" fill="#4B7238"/>
<path d="M183.096 52.2129C181.048 52.2129 179.456 51.6529 178.32 50.5329C177.184 49.3969 176.616 47.8369 176.616 45.8529C176.616 44.5569 176.864 43.4289 177.36 42.4689C177.856 41.5089 178.544 40.7729 179.424 40.2609C180.32 39.7489 181.344 39.4929 182.496 39.4929C183.648 39.4929 184.656 39.7089 185.52 40.1409C186.4 40.5729 187.072 41.1569 187.536 41.8929C188.016 42.6129 188.256 43.4129 188.256 44.2929C188.256 44.6929 188.216 45.0369 188.136 45.3249L188.016 45.7329C187.328 45.8769 186.584 45.9969 185.784 46.0929C184.104 46.3329 182.408 46.4529 180.696 46.4529C180.696 48.3089 180.952 49.6369 181.464 50.4369C181.976 51.2209 182.68 51.6129 183.576 51.6129C184.2 51.6129 184.776 51.4689 185.304 51.1809C185.848 50.8769 186.272 50.4849 186.576 50.0049C186.896 49.5089 187.056 49.0049 187.056 48.4929H187.656C187.656 49.1329 187.464 49.7409 187.08 50.3169C186.696 50.8929 186.16 51.3569 185.472 51.7089C184.784 52.0449 183.992 52.2129 183.096 52.2129ZM180.696 45.8529C181.72 45.8529 182.552 45.8129 183.192 45.7329C183.464 45.7169 183.752 45.6769 184.056 45.6129C184.072 45.5329 184.112 45.3569 184.176 45.0849C184.256 44.6849 184.296 44.2609 184.296 43.8129C184.296 42.4849 184.12 41.5169 183.768 40.9089C183.416 40.2849 182.992 39.9729 182.496 39.9729C181.296 39.9729 180.696 41.9329 180.696 45.8529Z" fill="#4B7238"/>
<path d="M204.206 55.8129C203.79 55.5409 203.446 55.2129 203.174 54.8289C202.502 53.9649 202.166 52.9729 202.166 51.8529H190.046V51.4929L191.486 51.1329V40.5729L190.046 40.2129V39.8529H196.766V40.2129L195.326 40.5729V51.2529H198.926V40.5729L197.486 40.2129V39.8529H204.206V40.2129L202.766 40.5729V51.2529H204.926V55.8129H204.206Z" fill="#4B7238"/>
</svg>
